<?xml version="1.0" encoding="utf-8"?>
<!-- Generator: Adobe Illustrator 15.1.0, SVG Export Plug-In . SVG Version: 6.00 Build 0)  -->
<!DOCTYPE svg PUBLIC "-//W3C//DTD SVG 1.1//EN" "http://www.w3.org/Graphics/SVG/1.1/DTD/svg11.dtd">
<svg version="1.1" id="Layer_1" xmlns="http://www.w3.org/2000/svg" xmlns:xlink="http://www.w3.org/1999/xlink" x="0px" y="0px"
	 width="490.394px" height="187.087px" viewBox="0 0 490.394 187.087" enable-background="new 0 0 490.394 187.087"
	 xml:space="preserve">
<g>
	<g>
		<g>
			<g>
				<rect x="56.228" y="47.642" fill="#FFFFFF" width="125.008" height="123.491"/>
				<path d="M207.986,72.212c-3.128,0-5.259-1.034-6.642-1.943l1.419-2.445c0.984,0.741,2.861,1.688,5.142,1.688
					c2.003,0,4.383-0.948,4.383-3.245c0-3.826-5.64-4.603-8.454-7.718c-0.988-1.054-1.634-2.411-1.634-4.207
					c0-3.333,2.548-5.984,7.001-5.984c2.487,0,4.239,0.607,5.384,1.168l-0.041,3.114c-1.416-0.876-3.298-1.559-5.203-1.559
					c-2.148,0-3.963,0.895-3.963,2.939c0,4.896,10.269,4.858,10.269,11.928C215.646,69.738,212.308,72.212,207.986,72.212"/>
				<path d="M231.881,56.962c1.486,1.561,2.292,3.815,2.292,6.499c0,2.694-0.851,5.003-2.354,6.555
					c-1.406,1.413-3.301,2.197-5.577,2.197c-2.173,0-4.034-0.708-5.392-2.063c-1.564-1.55-2.417-3.914-2.417-6.648
					c0-2.724,0.853-4.979,2.379-6.567c1.38-1.417,3.256-2.249,5.467-2.249C228.605,54.685,230.505,55.516,231.881,56.962
					 M221.623,63.428c0,3.722,1.754,6.195,4.701,6.195s4.639-2.515,4.639-6.195c0-3.708-1.692-6.149-4.721-6.149
					C223.254,57.278,221.623,59.753,221.623,63.428z"/>
				<path d="M248.691,71.858l-0.688-1.709c-1.23,1.068-3.115,2.063-5.33,2.063c-2.226,0-5.265-1.171-5.265-6.09V55.116h3.142v10.757
					c0,2.563,1.098,3.717,3.152,3.717c1.881,0,3.354-1.126,4.05-1.951V55.116h3.132v10.517c0,4.383,0.107,5.485,0.354,6.226H248.691
					"/>
				<path d="M260.621,72.212c-2.636,0-3.8-1.492-3.8-3.689V57.637h-2.774v-2.521h2.774v-3.751l3.152-0.99v4.742h5.153l-1.017,2.521
					h-4.137v9.834c0,1.383,0.522,2.015,1.626,2.015c1.132,0,2.234-0.596,2.91-1.098l0.91,2.121
					C264.006,71.545,262.159,72.212,260.621,72.212"/>
				<path d="M278.891,71.858V61.666c0-2.018-0.354-4.11-2.819-4.11c-1.84,0-3.507,1.235-4.774,2.345v11.958h-3.124V46.81h3.124
					v10.229c1.766-1.361,3.465-2.353,5.759-2.353c2.449,0,4.987,1.455,4.987,6.162v11.011H278.891"/>
				<path d="M296.503,71.858l-0.67-1.589c-1.037,0.978-2.655,1.943-5.051,1.943c-2.844,0-5.248-1.986-5.248-5.202
					c0-3.352,2.445-5.345,6.85-5.48l3.238-0.109c0-0.218,0-0.53,0-0.644c0-2.581-1.477-3.499-3.464-3.499
					c-2.051,0-3.426,0.781-4.393,1.45l-1.165-2.116c2.087-1.497,3.969-1.927,6.12-1.927c3.507,0,6.06,1.497,6.06,5.822v5.615
					c0,3.962,0.095,5.125,0.351,5.736H296.503 M295.623,63.93l-3.029,0.106c-2.778,0.117-3.905,1.032-3.905,2.735
					c0,1.581,1.046,2.819,3.074,2.819c1.963,0,3.153-0.917,3.86-1.629V63.93z"/>
				<path d="M324.259,71.858V61.097c0-2.072-0.439-3.633-2.588-3.633c-2.03,0-3.635,1.222-4.892,2.289
					c0.042,0.262,0.042,0.56,0.042,0.856v11.25h-3.152v-10.69c0-2.083-0.457-3.705-2.605-3.705c-2.03,0-3.619,1.222-4.854,2.317
					v12.078h-3.146V55.116h2.605l0.392,1.957c2.099-1.631,4.075-2.387,5.915-2.387c2.049,0,3.577,1.118,4.198,2.741
					c1.882-1.717,4.138-2.741,6.056-2.741c2.658,0,5.182,1.316,5.182,5.421v11.752H324.259"/>
				<path d="M337.547,72.212c-1.133,0-1.948-0.21-2.673-0.499v8.532h-3.115V55.837c1.293-0.464,3.275-1.152,5.788-1.152
					c5.384,0,8.52,3.301,8.52,8.579C346.067,68.924,342.017,72.212,337.547,72.212 M337.439,57.426
					c-1.086,0-1.864,0.178-2.564,0.379v11.222c0.833,0.354,1.521,0.563,2.545,0.563c3.321,0,5.449-2.361,5.449-6.226
					C342.869,59.263,340.386,57.426,337.439,57.426z"/>
				<path d="M354.67,72.212c-2.61,0-3.792-1.492-3.792-3.689V57.637h-2.786v-2.521h2.786v-3.751l3.162-0.99v4.742h5.165
					l-1.028,2.521h-4.137v9.834c0,1.383,0.526,2.015,1.629,2.015c1.132,0,2.215-0.596,2.887-1.098l0.941,2.121
					C358.074,71.545,356.237,72.212,354.67,72.212"/>
				<path d="M374.835,56.962c1.494,1.561,2.313,3.815,2.313,6.499c0,2.694-0.864,5.003-2.388,6.555
					c-1.378,1.413-3.275,2.197-5.549,2.197c-2.197,0-4.037-0.708-5.412-2.063c-1.568-1.55-2.399-3.914-2.399-6.648
					c0-2.724,0.831-4.979,2.359-6.567c1.37-1.417,3.255-2.249,5.494-2.249C371.55,54.685,373.448,55.516,374.835,56.962
					 M364.565,63.428c0,3.722,1.777,6.195,4.729,6.195c2.919,0,4.61-2.515,4.61-6.195c0-3.708-1.691-6.149-4.693-6.149
					C366.199,57.278,364.565,59.753,364.565,63.428z"/>
				<path d="M391.427,71.858v-10.15c0-1.955-0.313-4.152-2.749-4.152c-1.845,0-3.578,1.207-4.892,2.345v11.958h-3.115V55.116h2.613
					l0.399,1.922c1.895-1.416,3.614-2.353,5.928-2.353c2.445,0,4.968,1.684,4.968,5.957v11.217H391.427"/>
				<path d="M203.492,137.256c-1.005-0.494-1.083-0.777-1.083-2.73c0-3.621,0.293-6.506,0.379-7.668
					c0.058-0.789,0.206-1.145,0.584-1.145c0.412,0,0.502,0.207,0.502,0.797c0,0.648,0,1.658,0.201,2.662
					c1.087,5.354,5.854,7.375,10.7,7.375c6.935,0,10.339-4.982,10.339-9.613c0-4.986-2.086-7.879-8.311-13.008l-3.24-2.668
					c-7.668-6.297-9.4-10.775-9.4-15.688c0-7.721,5.766-13.001,14.958-13.001c2.821,0,4.907,0.285,6.702,0.723
					c1.378,0.293,1.963,0.351,2.552,0.351c0.563,0,0.711,0.161,0.711,0.518c0,0.363-0.299,2.744-0.299,7.651
					c0,1.167-0.145,1.673-0.494,1.673c-0.441,0-0.507-0.362-0.589-0.943c-0.065-0.864-0.502-2.813-0.942-3.622
					c-0.437-0.784-2.359-3.817-9.023-3.817c-4.972,0-8.891,3.093-8.891,8.382c0,4.107,1.893,6.716,8.83,12.138l2.029,1.582
					c8.521,6.721,10.542,11.207,10.542,16.984c0,2.969-1.162,8.459-6.134,11.996c-3.115,2.174-7.018,3.029-10.924,3.029
					C209.785,139.215,206.464,138.713,203.492,137.256"/>
				<path d="M265.213,90.875c14.308,0,25.153,8.752,25.153,23.051c0,13.734-10.195,25.068-25.504,25.068
					c-17.42,0-24.882-13.074-24.882-24.127C239.981,104.961,247.649,90.875,265.213,90.875 M266.663,136.479
					c5.692,0,17.186-3.035,17.186-20.824c0-14.727-8.961-22.464-18.985-22.464c-10.631,0-18.296,6.646-18.296,20.011
					C246.567,127.508,255.167,136.479,266.663,136.479z"/>
				<path d="M308.923,120.498c0,9.035,0.152,12.732,1.295,13.803c1.026,1.004,3.479,1.447,8.469,1.447
					c3.321,0,6.137-0.072,7.668-1.871c0.791-0.936,1.288-2.244,1.502-3.471c0.087-0.432,0.288-0.797,0.646-0.797
					c0.309,0,0.437,0.285,0.437,0.928c0,0.66-0.437,4.344-0.938,6.15c-0.419,1.449-0.65,1.672-4.059,1.672
					c-4.548,0-8.077-0.086-11.039-0.223c-2.887-0.07-5.06-0.156-6.94-0.156c-0.288,0-1.38,0-2.58,0.086
					c-1.325,0.07-2.701,0.139-3.71,0.139c-0.646,0-0.999-0.139-0.999-0.502c0-0.225,0.148-0.504,0.502-0.504
					c0.583,0,1.387-0.148,1.95-0.289c1.228-0.297,1.371-1.457,1.662-3.248c0.354-2.539,0.354-7.379,0.354-13.299v-10.85
					c0-9.521,0-11.27-0.139-13.223c-0.153-2.086-0.507-3.101-2.593-3.378c-0.524-0.084-1.589-0.156-2.166-0.156
					c-0.219,0-0.502-0.282-0.502-0.502c0-0.371,0.283-0.511,0.991-0.511c2.887,0,6.85,0.14,7.229,0.14
					c0.292,0,5.059-0.14,6.993-0.14c0.68,0,1.024,0.14,1.024,0.511c0,0.22-0.283,0.429-0.502,0.429
					c-0.432,0-1.374,0.073-2.104,0.146c-1.855,0.361-2.227,1.294-2.382,3.462c-0.07,1.953-0.07,3.701-0.07,13.223V120.498"/>
				<path d="M341.811,109.514c0-9.521,0-11.27-0.157-13.223c-0.136-2.086-0.497-3.101-2.58-3.378
					c-0.53-0.084-1.614-0.156-2.177-0.156c-0.235,0-0.524-0.282-0.524-0.502c0-0.371,0.289-0.511,1.029-0.511
					c2.901,0,6.99,0.14,7.372,0.14c0.437,0,13.72,0.092,15.165,0c1.234-0.072,2.379-0.274,2.896-0.349
					c0.297-0.089,0.569-0.287,0.861-0.287c0.23,0,0.291,0.287,0.291,0.564c0,0.443-0.356,1.167-0.502,2.896
					c-0.081,0.572-0.229,3.317-0.354,4.05c-0.086,0.297-0.297,0.646-0.588,0.646c-0.351,0-0.494-0.289-0.494-0.805
					c0-0.426-0.086-1.439-0.382-2.15c-0.412-1.009-1.067-1.466-4.554-1.877c-1.083-0.158-8.45-0.231-9.163-0.231
					c-0.296,0-0.357,0.231-0.357,0.643v16.706c0,0.432,0,0.648,0.357,0.648c0.787,0,9.163,0,10.629-0.141
					c1.502-0.145,2.44-0.215,3.088-0.865c0.444-0.436,0.728-0.807,0.941-0.807c0.226,0,0.371,0.16,0.371,0.514
					c0,0.35-0.371,1.367-0.52,3.396c-0.144,1.219-0.268,3.531-0.268,3.977c0,0.494-0.144,1.145-0.588,1.145
					c-0.289,0-0.433-0.199-0.433-0.561c0-0.584,0-1.234-0.293-2.029c-0.218-0.871-0.798-1.592-3.238-1.885
					c-1.733-0.215-8.529-0.285-9.633-0.285c-0.354,0-0.415,0.207-0.415,0.43v5.137c0,2.086-0.066,9.246,0,10.467
					c0.139,4.125,1.288,4.918,7.586,4.918c1.664,0,4.696,0,6.343-0.65c1.667-0.727,2.545-1.801,2.901-4.268
					c0.148-0.719,0.297-0.936,0.647-0.936c0.354,0,0.439,0.512,0.439,0.936c0,0.436-0.497,4.623-0.876,5.932
					c-0.441,1.598-1.092,1.598-3.552,1.598c-4.764,0-8.438-0.154-11.049-0.223c-2.655-0.156-4.325-0.156-5.261-0.156
					c-0.148,0-1.383,0-2.741,0.086c-1.226,0.07-2.691,0.139-3.692,0.139c-0.646,0-1.017-0.139-1.017-0.502
					c0-0.225,0.136-0.504,0.515-0.504c0.564,0,1.355-0.223,1.939-0.289c1.235-0.223,1.379-1.457,1.675-3.248
					c0.358-2.539,0.358-7.379,0.358-13.299V109.514"/>
				<path d="M384.293,129.83c0.141,5.051,0.726,6.568,2.462,7.01c1.145,0.283,2.605,0.359,3.178,0.359
					c0.284,0,0.498,0.213,0.498,0.504c0,0.363-0.42,0.502-1.148,0.502c-3.618,0-6.146-0.225-6.722-0.225s-3.265,0.225-6.149,0.225
					c-0.643,0-0.996-0.068-0.996-0.502c0-0.291,0.201-0.504,0.497-0.504c0.499,0,1.654-0.076,2.615-0.359
					c1.563-0.441,1.795-2.111,1.795-7.668V93.987c0-2.453,0.356-3.112,0.858-3.112c0.721,0,1.813,1.227,2.462,1.882
					c1.024,1.006,10.259,10.837,20.096,20.955c6.28,6.496,13.069,13.797,15.02,15.822l-0.65-30.775
					c-0.058-3.973-0.419-5.357-2.384-5.711c-1.145-0.218-2.588-0.29-3.11-0.29c-0.424,0-0.504-0.366-0.504-0.575
					c0-0.37,0.504-0.438,1.235-0.438c2.873,0,5.928,0.14,6.636,0.14c0.736,0,2.823-0.14,5.437-0.14c0.638,0,1.141,0.068,1.141,0.438
					c0,0.209-0.284,0.575-0.708,0.575c-0.284,0-0.812,0-1.519,0.156c-2.111,0.424-2.234,1.659-2.234,5.332l-0.148,35.99
					c0,4.039-0.078,4.4-0.522,4.4c-0.651,0-1.293-0.498-4.849-3.754c-0.647-0.58-9.81-9.607-16.544-16.625
					c-7.372-7.73-14.51-15.238-16.448-17.406L384.293,129.83"/>
				<path d="M455.681,120.363c0,5.92,0,10.76,0.291,13.299c0.211,1.791,0.499,2.951,2.465,3.248
					c0.861,0.141,2.294,0.289,2.879,0.289c0.449,0,0.502,0.279,0.502,0.504c0,0.277-0.289,0.502-1.001,0.502
					c-3.486,0-7.523-0.225-7.869-0.225c-0.297,0-4.701,0.225-6.591,0.225c-0.724,0-0.992-0.139-0.992-0.502
					c0-0.225,0.146-0.447,0.502-0.447c0.577,0,1.293-0.133,1.857-0.279c1.313-0.289,1.667-1.523,1.897-3.314
					c0.288-2.539,0.288-7.379,0.288-13.299V94.572l-9.188,0.136c-3.963,0.077-5.494,0.514-6.433,1.937
					c-0.703,1.096-0.794,1.529-0.997,1.955c-0.147,0.516-0.382,0.58-0.653,0.58c-0.14,0-0.433-0.125-0.433-0.502
					c0-0.652,1.289-6.136,1.38-6.646c0.123-0.354,0.427-1.157,0.646-1.157c0.411,0,1.066,0.51,2.815,0.734
					c1.8,0.203,4.265,0.274,4.978,0.274h23.996c2.088,0,3.528-0.14,4.535-0.274c0.956-0.164,1.528-0.293,1.813-0.293
					c0.296,0,0.296,0.362,0.296,0.716c0,1.872-0.201,6.285-0.201,7.023c0,0.488-0.301,0.781-0.598,0.781
					c-0.288,0-0.432-0.209-0.502-1.078l-0.058-0.646c-0.23-1.893-1.589-3.261-7.677-3.403l-7.947-0.136V120.363"/>
				<path d="M217.594,169.246c-1.38,1.424-3.511,2.313-6.614,2.313c-2.931,0-4.912-0.789-6.252-2.027
					c-1.713-1.701-2.17-4.213-2.17-6.4v-14.215h3.03v14.139c0,1.557,0.371,3.258,1.482,4.396c0.836,0.891,2.132,1.457,3.968,1.457
					c2.069,0,3.444-0.543,4.326-1.457c0.958-1.004,1.313-2.488,1.313-4.189v-14.346h3.03v14.561
					C219.705,165.658,219.055,167.764,217.594,169.246"/>
				<path d="M234.297,171.223V161.5c0-1.855-0.305-3.959-2.652-3.959c-1.76,0-3.399,1.16-4.659,2.238v11.443h-2.984v-16.021h2.503
					l0.374,1.846c1.845-1.363,3.451-2.252,5.689-2.252c2.337,0,4.737,1.602,4.737,5.699v10.729H234.297"/>
				<path d="M245.101,150.164c0,1.084-0.921,2-2.008,2c-1.127,0-2.013-0.877-2.013-2c0-1.045,0.886-1.969,2.013-1.969
					C244.18,148.195,245.101,149.076,245.101,150.164 M244.567,171.223h-2.96v-16.016h2.96V171.223z M241.607,171.223"/>
				<polyline points="255.919,171.33 253.663,171.33 247.374,155.201 250.465,155.201 254.82,167.395 254.885,167.395 
					259.681,155.201 262.579,155.201 255.919,171.33 				"/>
				<path d="M266.802,163.838c0,2.852,1.835,5.174,5.046,5.174c1.38,0,2.804-0.473,3.886-1.107l0.836,1.998
					c-1.361,1.039-3.437,1.656-5.302,1.656c-5.203,0-7.603-4.107-7.603-8.568c0-4.602,2.65-8.195,6.764-8.195
					c4.202,0,6.622,3.287,6.622,8.26c0,0.207,0,0.479,0,0.783H266.802 M270.392,157.236c-2.239,0-3.619,1.967-3.619,4.264h7.105
					C273.878,159.426,272.726,157.236,270.392,157.236z"/>
				<path d="M288.495,158.113c-0.428-0.236-1.017-0.371-1.662-0.371c-0.948,0-2.322,0.719-3.344,1.766v11.715h-3.009v-16.021h2.499
					l0.382,1.805c1.98-1.828,3.24-2.211,4.491-2.211c0.75,0,1.412,0.271,1.832,0.555L288.495,158.113"/>
				<path d="M294.908,171.559c-2.42,0-3.964-0.617-5.142-1.316l1.1-2.279c0.872,0.576,2.287,1.26,4.034,1.26
					c1.848,0,3.147-0.824,3.147-2.174c0-3.547-7.334-2.264-7.334-7.846c0-2.436,1.872-4.408,5.602-4.408
					c1.79,0,3.107,0.383,4.235,0.848v2.576c-1.189-0.51-2.445-0.982-4.14-0.982c-1.541,0-2.733,0.537-2.733,1.836
					c0,3.197,7.438,2.324,7.438,7.672C301.115,170.16,298.228,171.559,294.908,171.559"/>
				<path d="M308.297,150.164c0,1.084-0.918,2-2.013,2c-1.116,0-1.997-0.877-1.997-2c0-1.045,0.881-1.969,1.997-1.969
					C307.379,148.195,308.297,149.076,308.297,150.164 M307.784,171.223h-2.969v-16.016h2.969V171.223z M304.811,171.223"/>
				<path d="M317.304,171.559c-2.508,0-3.635-1.416-3.635-3.521v-10.434h-2.681v-2.402h2.681v-3.598l3.02-0.938v4.535h4.94
					l-0.987,2.402h-3.953v9.412c0,1.326,0.499,1.926,1.549,1.926c1.087,0,2.132-0.576,2.778-1.037l0.881,2.033
					C320.54,170.906,318.785,171.559,317.304,171.559"/>
				<path d="M332.488,172.439c-2.049,5.813-4.577,6.801-7.27,6.801c-1.403,0-2.342-0.268-3.223-0.641l0.753-2.314
					c0.672,0.346,1.421,0.545,2.409,0.545c1.853,0,3.567-1.451,4.754-5.543l-7.244-16.086h3.198l5.474,12.535h0.099l4.199-12.535
					h2.964L332.488,172.439"/>
				<path fill="#EE2D27" d="M116.727,156.479c0.243,1.193,0.65,1.91-0.836,2.465C116.463,157.672,116.727,157.066,116.727,156.479
					 M181.244,155.49v2.977c0,0-3.815-3.824-5.722-5.742C176.939,153.391,181.141,155.705,181.244,155.49 M117.106,149.867
					c0,2.063-2.91,8.748-3.24,8.66c0.14-1.777,0.08-4.24,0.08-5.656C113.945,152.871,115.941,150.881,117.106,149.867
					 M113.155,143.686c-0.235,0.082,3.029,0.682,3.798,1.053c-0.844,1.059-2.322,2.725-3.173,3.4 M108.976,143.178
					c1.227,1.715,1.606,7.488,1.644,7.533c-1.084,0.914-7.11,6.203-8.467,7.463c-1.322,1.227-6.693,4.854-7.232,4.869
					c0.437-0.547,3.746-6.475,3.701-6.482C104.605,147.35,109.031,143.199,108.976,143.178 M104.131,142.064
					c-2.659,2.412-23.511,27.125-23.614,26.531c0.264-0.807,18.885-27.059,18.708-27.195 M142.865,138.895
					c0,0,0.329-0.059,2.988,1.762c1.676,1.145,7.06,3.275,7.903,3.779c-3.882,1.818-7.932,0.93-10.652,0.592
					c-4.043-0.49-2.17-3.178-0.811-5.318 M158.227,138.557c0.983,1.457,2.3,2.568,3.258,4.219c0.133,0.104-2.852-1.703-2.852-1.703
					 M117.056,134.795c0.306,0.432,2.603,3.119,2.841,3.152c-0.038,0.465-0.156,1.48-0.198,1.936
					c-0.852-0.27-3.695-3.656-3.112-4.355L117.056,134.795z M113.414,136.498c0.486,0.889,0.667,1.383,1.597,3.014
					c-0.593-0.107-2.408-0.445-3.572-0.666C112.352,137.85,112.849,137.428,113.414,136.498 M146.636,131.32
					c0,0,2.428,4.074,2.766,4.568c-1.31-0.086-3.166-0.336-4.561-0.584C144.841,135.305,146.581,132.053,146.636,131.32
					 M107.347,127.32c0.655,1.102,2.581,4.717,4.009,6.438c-1.687,1.688-3.223,3.037-4.001,3.795
					c0.063,0.287-3.66-0.498-5.392-0.627c1.136-1.494,5.161-8.668,5.276-9.393L107.347,127.32z M143.185,126.611
					c-0.992,1.971-2.033,4.947-2.975,6.408c-0.733-0.205-0.938-0.301-1.511-0.521c-0.284-0.107-0.894-0.461-1.235-0.461
					C139.58,129.803,141.523,128.098,143.185,126.611 M104.654,124.723c-0.39,1.074-7.334,11.701-7.334,11.701
					c-0.231-0.025-29.253-4.125-30.213-4.449C67.996,131.391,102.947,125.389,104.654,124.723 M110.846,121.775
					c0.575,0.951,2.518,5.033,3.683,5.963c-0.078,2.047-0.493,3.393-1.052,3.277c-1.009-0.215-3.725-5.059-4.335-6.545
					L110.846,121.775z M131.435,122.586c-0.042,0.896-0.454,2.498-0.652,3.275C129.29,125.916,129.583,122.955,131.435,122.586
					 M138.674,120.932c0.943,0.871,1.391,1.736,2.527,2.871c-0.452,0.133-2.417,0.445-2.671,0.396
					C138.579,123.113,138.629,122.018,138.674,120.932 M153.987,119.152c0,1.094-0.173,7.953-0.05,10.324
					c-0.309-0.246-3.813-3.803-4.088-4.15C149.607,125.023,153.95,119.178,153.987,119.152 M148.393,116.482
					c-1.19,1.375-2.166,2.945-3.137,4.078c-0.819-0.721-1.943-1.936-2.802-2.643c1.84-0.658,5.663-1.654,6.371-1.951
					 M116.069,110.885c0.276,0.648,2.164,4.061,2.45,3.955c-0.607,1.146-2.977-0.059-4.372-0.301 M149.447,109.045
					c3.593-1.047,4.223,0.092,4.157,0.58c-0.612,0.139-11.496,2.977-12.479,3.238c1.135-2.363,2.794-2.17,5.655-3.033
					 M128.717,108.326c0.692,0.799,0.223,1.686-0.894,3.162 M117.892,107.715c1.255,0.645,0.569,1.699,1.568,2.539
					C118.657,109.842,118.127,108.783,117.892,107.715 M165.685,95.029c-1.272,3.617-4.516,7.029-6.94,10.174 M133.109,107.463
					c-0.547-0.396-1.099-1.787-1.762-2.568c0.921-2.283,3.984-11.684,4.618-13.269 M154.254,105.166
					c-0.976-0.164-4.465-0.51-8.542,0.848c2.52-3.93,11.431-12.92,12.756-14.227 M126.759,93.042
					c1.029-0.85,0.971,3.054,0.567,7.591c-0.09,1.043-0.474-1.896-2.598,2.219c-0.11,0.959,2.063,2.857,1.951,3.758
					c-0.427,3.381-0.851,6.064-0.929,6.09c-3.923,0.406-4.935-9.979-4.935-9.979c1.308-2.1,2.012-3.391,3.683-5.885L126.759,93.042z
					 M142.746,87.259c-0.441,1.966-0.692,3.808-1.516,5.686C141.174,90.951,141.687,89.04,142.746,87.259 M162.594,80.779
					c0.547,2.32-5.986,6.7-7.665,7.652C159.279,82.951,160.98,81.005,162.594,80.779 M88.935,79.322
					c0.42,0.25,0.626,0.611,0.737,0.106c1.54,2.537,11.517,22.542,13.875,26.593c1.897,3.248,3.375,7.764,5.549,11.264
					c-1.305,2.51-0.412,1.176-0.643,1.547c-1.375-0.709-1.593-1.979-2.671-2.799 M175.378,70.741
					c-3.938,3.542-7.515,6.82-10.487,9.312c1.292-3.457-2.026-1.703-3.589-1.1C164.957,74.846,170.443,71.629,175.378,70.741
					 M181.214,70.374c0,0,0.029,1.433,0.029,1.543c0,1.728-19.312,24.243-21.362,27.042c0.938-4.174,3.371-10.249,3.7-11.869
					 M150.71,57.038c-0.49,2.035-0.979,4.138-1.577,6.104c-0.243,0.792-4.119,11.379-5.65,14.061
					C144.4,75.377,148.409,61.831,150.71,57.038 M78.389,54.189c-0.013-0.296,0.054-0.455,0.182-0.49
					c0.374-0.101,1.247,0.901,1.988,2.425c2.984,5.736,9.315,21.062,8.352,21.832c-2.367-3.742-4.499-7.55-6.27-11.822
					c-1.992-4.818-3.606-8.481-4.19-11.334 M21.755,54.194c5.018,0.775,15.007,11.245,15.271,11.136
					c-0.35-0.192,14.027,11.008,19.156,15.066l0.004,0.415c-0.004-0.193-16.567-11.576-25.194-17.362
					C24.356,58.466,22.299,57.043,21.755,54.194 M92.47,26.947c-1.481-6.882-0.197-6.384-0.197-6.384
					c2.82-0.25,22.33,71.944,23.557,80.519c-0.605-0.734-9.607-25.287-13.867-37.827C100.958,60.32,94.891,38.151,92.47,26.947z
					 M159.918,15.066c2.197-2.997-0.963,8.16-1.676,11.09c-0.617,2.563-6.351,21.58-9.327,27.33
					c0.84-5.394,6.129-23.706,7.01-26.729C157.346,21.869,159.918,15.066,159.918,15.066z M56.215,47.614
					c41.709-0.005,83.299-0.005,125.011-0.008c-0.016,2.979-0.012,15.391-0.012,18.147c-0.156-0.05-1.589,1.556-4.165,3.856
					c-0.095,0.056-5.643,1.098-9.422,3.441c-7.211,4.475-9.319,7.473-11.616,10.25c-4.664,5.47-8.808,10.916-13.105,16.029
					c-0.029-0.174,16.218-61.597,17.362-66.468c1.448-6.188,2.091-7.465,3.712-17.496c0.65-3.997-0.646-8.039-2.889-7.464
					c-4.496,1.846-7.854,16.138-10.196,24.228c-2.314,7.953-4.269,15.46-6.536,23.878c-1.198,4.449-12.505,40.979-14.337,45.565
					c0.564-5.326,1.571-10.144-0.099-12.99c-3.466-0.978-8.788,8.976-10.163,11.582c-1.322-5.268-6.373-21.5-6.29-20.87
					c-0.086-0.334-4.013-15.825-5.977-21.602c-2.227-6.547-8.603-27.546-8.809-28.056c-0.951-2.377-3.655-13.855-7.257-13.281
					c-2.177,0.345-3.12,4.11-0.227,17.665c1.116,6.045,7.656,30.184,9.863,36.924c3.347,10.236,13.402,37.407,13.633,38.1
					c0,0-1.873,3.254-1.873,3.189c-0.524-1.348-18.91-34.335-19.894-36.174c-2.194-4.077-6.467-15.335-8.265-18.786
					c-1.371-2.643-4.667-9.484-6.919-9.648c-4.326-0.321-1.659,10.055-1.396,11.168c1.264,5.325,21.675,48.556,21.675,50.857
					c0.029,0.238-56.626-45.448-56.49-45.242c-1.045-0.716-11.056-9.644-10.759-9.315c-1.646-1.614-7.738-5.021-9.188-5.021
					c-5.153-1-4.511,5.35-1.761,8.861c1.95,2.495,19.473,14.367,24.116,17.323c2.856,1.795,49.373,37.691,56.807,45.191
					c-1.798,0.828-43.375,9.172-47.768,9.172c-1.23,0-3.564-0.033-4.976,0c-2.663-0.111-2.997,3.959-0.35,4
					c2.799,0.033,4.985-0.082,7.393-0.082c1.535,0.037,15.909,2.129,17.851,2.404c3.286,0.457,20.564,3.551,22.582,3.713
					c-0.271-0.428-18.514,30.492-22.956,30.479c-2.062-0.002-16.333-0.002-16.333-0.002c0.004-11.967-0.017-24.559-0.013-36.529
					C56.19,105.611,56.203,76.612,56.215,47.614 M83.493,171.141c-0.3,0-0.601,0-0.893,0c1.593-1.695,3.189-3.393,4.783-5.088
					C86.436,167.994,84.881,169.506,83.493,171.141 M108.458,171.141c-5.042,0-10.081,0-15.119,0
					c1.618-1.408,16.934-14.773,17.444-15.355C111.368,160.025,109.59,167.807,108.458,171.141 M123.26,171.141
					c-1.774,0-3.548,0-5.318,0c1.091-4.408,1.762-7.982,5.231-10.875C123.173,160.266,123.25,169.646,123.26,171.141
					 M136.134,171.141c-1.374,0-9.335-0.008-9.335-0.008c0.083-0.066-0.111-15.264-0.156-21.002
					c0.131,0.227,2.618,4.992,2.769,6.541c0.424,4.227,4.862,8.029,5.281,8.557C135.118,165.756,135.497,166.998,136.134,171.141
					 M143.915,171.148c0.02,0-1.548,0.074-1.548,0.074s-0.148-1.621-0.44-4.42c0.542,0.641,3.201,3.711,3.758,4.346 M154.11,171.141
					c-4.169-0.008-4.528-2.428-6.935-5.244c-0.458-0.832-2.392-3.363-5.047-6.98c-1.539-2.842-2.045-7.012-2.239-10.469
					C141.099,148.447,153.192,170.613,154.11,171.141 M163.223,171.141c-1.893,0-3.643-0.008-5.437-0.008
					c-1.338-2.014-13.163-20.719-13.583-21.555c2.51,0.084,8.755,1.055,12.899-1.727
					C157.103,149.131,162.803,170.104,163.223,171.141 M172.391,171.141c-1.804,0-4.751-0.008-5.665-0.008
					c0,0-5.146-16.691-5.05-16.795C161.877,155.201,171.957,170.383,172.391,171.141 M181.244,171.141
					c-2.716,0-3.272,0.303-4.967-1.869c-1.277-2.148-12.563-20.021-13.917-22.096c2.535,0.754,3.351,1.16,3.351,1.16
					c11.471,11.979,15.534,14.822,15.534,15.893C181.244,166.533,181.244,168.838,181.244,171.141 M181.244,161.793
					c-0.374,0.588-4.294-3.266-5.306-4.311c-2.684-2.762-5.359-5.527-8.04-8.291c0.482,0.146,1.659,0.906,2.445,1.459
					C173.443,153.918,177.75,158.266,181.244,161.793 M181.244,107.549c0,14.354,0,29.221,0,43.566
					c-4.613-1.994-9.332-3.463-12.934-6.887c-5.951-5.66-10.273-10.85-10.273-10.85c-0.37-2.5,0.087-19.676-0.053-20.105
					 M181.244,79.867c0,7.553,0,15.108,0,22.665c0,0.561-18.017,5.17-20.675,5.873c-0.655-0.826,7.285-11.355,7.935-11.998
					C172.344,90.867,176.522,84.418,181.244,79.867"/>
			</g>
		</g>
	</g>
</g>
</svg>
